<svg width="208" height="61" fill="none" xmlns="http://www.w3.org/2000/svg"><path d="M19.248 44.72c-3.232 0-6.176-.752-8.832-2.256-2.656-1.536-4.736-3.632-6.24-6.288-1.504-2.688-2.256-5.664-2.256-8.928 0-4.992 1.648-9.168 4.944-12.528 3.328-3.36 7.456-5.04 12.384-5.04 4.096 0 7.632 1.232 10.608 3.696 2.976 2.464 4.864 5.696 5.664 9.696h-7.296c-.448-1.312-1.104-2.448-1.968-3.408a8.413 8.413 0 0 0-3.12-2.256c-1.184-.544-2.48-.816-3.888-.816-2.848 0-5.232 1.024-7.152 3.072-1.888 2.016-2.832 4.544-2.832 7.584 0 3.008.944 5.52 2.832 7.536 1.92 2.016 4.304 3.024 7.152 3.024 2.208 0 4.112-.624 5.712-1.872 1.6-1.248 2.704-2.944 3.312-5.088h7.344c-.768 4.16-2.656 7.52-5.664 10.08-2.976 2.528-6.544 3.792-10.704 3.792Zm31.271 0c-3.616 0-6.592-1.136-8.928-3.408-2.304-2.272-3.456-5.2-3.456-8.784v-1.2h7.2v.816c0 1.152.208 2.16.624 3.024.416.864 1.008 1.536 1.776 2.016.8.448 1.728.672 2.784.672.992 0 1.856-.224 2.592-.672.768-.48 1.36-1.152 1.776-2.016.416-.864.624-1.872.624-3.024V10.4h7.2v22.128c0 3.584-1.136 6.512-3.408 8.784-2.24 2.272-5.168 3.408-8.784 3.408Zm38.383-7.488h12.864V44h-20.16V10.4h7.296v26.832ZM160.996 10.4h7.104V44h-6.048l-15.216-20.976V44h-7.152V10.4h6.576l14.736 20.496V10.4Zm27.502 0c4.928 0 8.992 1.584 12.192 4.752 3.232 3.136 4.848 7.136 4.848 12s-1.616 8.896-4.848 12.096c-3.2 3.168-7.264 4.752-12.192 4.752h-12.72V10.4h12.72Zm-.192 26.832c2.88 0 5.232-.944 7.056-2.832 1.824-1.888 2.736-4.304 2.736-7.248s-.912-5.344-2.736-7.2c-1.824-1.856-4.176-2.784-7.056-2.784h-5.232v20.064h5.232ZM104.08 34.527V32.34h2.187v2.187h-2.187Z" fill="#E9B115"/><path d="M101.892 34.527V32.34h2.188v2.187h-2.188Z" fill="#B26411"/><path d="M106.267 34.527V32.34h2.188v2.187h-2.188Z" fill="#FDF55F"/><path d="M108.455 34.527V32.34h2.187v2.187h-2.187Z" fill="#FAD64A"/><path d="M110.642 34.527V32.34h2.188v2.187h-2.188Z" fill="#FDF55F"/><path d="M112.83 34.527V32.34h2.188v2.187h-2.188Z" fill="#E9B115"/><path d="M115.017 34.527V32.34h2.188v2.187h-2.188ZM117.205 34.527V32.34h2.187v2.187h-2.187ZM119.392 34.527V32.34h2.188v2.187h-2.188ZM121.58 34.527V32.34h2.187v2.187h-2.187Z" fill="#DC9613"/><path d="M123.767 34.527V32.34h2.188v2.187h-2.188Z" fill="#E9B115"/><path d="M125.955 34.527V32.34h2.187v2.187h-2.187ZM128.142 34.527V32.34h2.188v2.187h-2.188Z" fill="#FAD64A"/><path d="M130.33 34.527V32.34h2.187v2.187h-2.187Z" fill="#752802"/><path d="M132.517 34.527V32.34h2.188v2.187h-2.188Z" fill="#752802"/><path d="M104.08 32.34v-2.188h2.187v2.188h-2.187Z" fill="#FAD64A"/><path d="M101.892 32.34v-2.188h2.188v2.188h-2.188Z" fill="#B26411"/><path d="M106.267 32.34v-2.188h2.188v2.188h-2.188Z" fill="#FDF55F"/><path d="M108.455 32.34v-2.188h2.187v2.188h-2.187Z" fill="#FAD64A"/><path d="M110.642 32.34v-2.188h2.188v2.188h-2.188Z" fill="#fff"/><path d="M112.83 32.34v-2.188h2.187v2.188h-2.187Z" fill="#FFFDE0"/><path d="M115.017 32.34v-2.188h2.188v2.188h-2.188Z" fill="#FDF55F"/><path d="M117.205 32.34v-2.188h2.187v2.188h-2.187Z" fill="#E9B115"/><path d="M119.392 32.34v-2.188h2.188v2.188h-2.188ZM121.58 32.34v-2.188h2.187v2.188h-2.187ZM123.767 32.34v-2.188h2.188v2.188h-2.188ZM125.955 32.34v-2.188h2.187v2.188h-2.187Z" fill="#DC9613"/><path d="M128.142 32.34v-2.188h2.188v2.188h-2.188Z" fill="#E9B115"/><path d="M130.33 32.34v-2.188h2.187v2.188h-2.187Z" fill="#FAD64A"/><path d="M132.517 32.34v-2.188h2.188v2.188h-2.188Z" fill="#FAD64A"/><path d="M134.705 32.34v-2.188h2.187v2.188h-2.187Z" fill="#752802"/><path d="M104.08 30.152v-2.187h2.187v2.187h-2.187Z" fill="#FAD64A"/><path d="M101.892 30.152v-2.187h2.188v2.187h-2.188Z" fill="#B26411"/><path d="M106.267 30.152v-2.187h2.188v2.187h-2.188Z" fill="#FDF55F"/><path d="M108.455 30.152v-2.187h2.187v2.187h-2.187Z" fill="#FFFDE0"/><path d="M110.642 30.152v-2.187h2.188v2.187h-2.188ZM112.83 30.152v-2.187h2.187v2.187h-2.187Z" fill="#FDF55F"/><path d="M115.017 30.152v-2.187h2.188v2.187h-2.188ZM117.205 30.152v-2.187h2.187v2.187h-2.187ZM119.392 30.152v-2.187h2.188v2.187h-2.188Z" fill="#FFFDE0"/><path d="M121.58 30.152v-2.187h2.187v2.187h-2.187Z" fill="#FDF55F"/><path d="M123.767 30.152v-2.187h2.188v2.187h-2.188Z" fill="#E9B115"/><path d="M125.955 30.152v-2.187h2.187v2.187h-2.187ZM128.142 30.152v-2.187h2.188v2.187h-2.188ZM130.33 30.152v-2.187h2.187v2.187h-2.187Z" fill="#DC9613"/><path d="M132.517 30.152v-2.187h2.188v2.187h-2.188Z" fill="#FAD64A"/><path d="M134.705 30.152v-2.187h2.187v2.187h-2.187Z" fill="#752802"/><path d="M104.08 27.965v-2.188h2.187v2.188h-2.187Z" fill="#FAD64A"/><path d="M101.892 27.965v-2.188h2.188v2.188h-2.188Z" fill="#B26411"/><path d="M106.267 27.965v-2.188h2.188v2.188h-2.188Z" fill="#FFFDE0"/><path d="M108.455 27.965v-2.188h2.187v2.188h-2.187ZM110.642 27.965v-2.188h2.188v2.188h-2.188ZM112.83 27.965v-2.188h2.188v2.188h-2.188Z" fill="#FDF55F"/><path d="M115.017 27.965v-2.188h2.188v2.188h-2.188ZM117.205 27.965v-2.188h2.187v2.188h-2.187ZM119.392 27.965v-2.188h2.188v2.188h-2.188Z" fill="#FDF55F"/><path d="M121.58 27.965v-2.188h2.187v2.188h-2.187ZM123.767 27.965v-2.188h2.188v2.188h-2.188ZM125.955 27.965v-2.188h2.187v2.188h-2.187Z" fill="#FFFDE0"/><path d="M128.142 27.965v-2.188h2.188v2.188h-2.188Z" fill="#FDF55F"/><path d="M130.33 27.965v-2.188h2.187v2.188h-2.187Z" fill="#DC9613"/><path d="M132.517 27.965v-2.188h2.188v2.188h-2.188Z" fill="#FAD64A"/><path d="M134.705 27.965v-2.188h2.187v2.188h-2.187Z" fill="#752802"/><path d="M104.08 25.777V23.59h2.187v2.187h-2.187Z" fill="#FFFDE0"/><path d="M101.892 25.777V23.59h2.188v2.187h-2.188Z" fill="#B26411"/><path d="M106.267 25.777V23.59h2.188v2.187h-2.188ZM108.455 25.777V23.59h2.187v2.187h-2.187ZM110.642 25.777V23.59h2.188v2.187h-2.188ZM112.83 25.777V23.59h2.187v2.187h-2.187ZM115.017 25.777V23.59h2.188v2.187h-2.188ZM117.205 25.777V23.59h2.187v2.187h-2.187ZM119.392 25.777V23.59h2.188v2.187h-2.188ZM121.58 25.777V23.59h2.187v2.187h-2.187ZM123.767 25.777V23.59h2.188v2.187h-2.188ZM125.955 25.777V23.59h2.187v2.187h-2.187Z" fill="#FDF55F"/><path d="M128.142 25.777V23.59h2.188v2.187h-2.188ZM130.33 25.777V23.59h2.187v2.187h-2.187Z" fill="#FFFDE0"/><path d="M132.517 25.777V23.59h2.188v2.187h-2.188Z" fill="#FDF55F"/><path d="M134.705 25.777V23.59h2.187v2.187h-2.187Z" fill="#752802"/><path d="M104.08 23.59v-2.188h2.187v2.188h-2.187ZM106.267 23.59v-2.188h2.188v2.188h-2.188ZM108.455 23.59v-2.188h2.187v2.188h-2.187Z" fill="#B26411"/><path d="M110.642 23.59v-2.188h2.188v2.188h-2.188Z" fill="#FAD64A"/><path d="M112.83 23.59v-2.188h2.187v2.188h-2.187ZM115.017 23.59v-2.188h2.188v2.188h-2.188ZM117.205 23.59v-2.188h2.187v2.188h-2.187ZM119.392 23.59v-2.188h2.188v2.188h-2.188ZM121.58 23.59v-2.188h2.187v2.188h-2.187ZM123.767 23.59v-2.188h2.188v2.188h-2.188ZM125.955 23.59v-2.188h2.187v2.188h-2.187ZM128.142 23.59v-2.188h2.188v2.188h-2.188Z" fill="#FDF55F"/><path d="M130.33 23.59v-2.188h2.187v2.188h-2.187Z" fill="#FAD64A"/><path d="M132.517 23.59v-2.188h2.188v2.188h-2.188Z" fill="#752802"/><path d="M110.642 21.402v-2.187h2.188v2.187h-2.188ZM112.83 21.402v-2.187h2.187v2.187h-2.187ZM115.017 21.402v-2.187h2.188v2.187h-2.188Z" fill="#B26411"/><path d="M117.205 21.402v-2.187h2.187v2.187h-2.187ZM119.392 21.402v-2.187h2.188v2.187h-2.188ZM121.58 21.402v-2.187h2.188v2.187h-2.188Z" fill="#FDF55F"/><path d="M123.767 21.402v-2.187h2.188v2.187h-2.188ZM125.955 21.402v-2.187h2.187v2.187h-2.187ZM128.142 21.402v-2.187h2.188v2.187h-2.188Z" fill="#FDF55F"/><path d="M130.33 21.402v-2.187h2.187v2.187h-2.187ZM117.205 19.215v-2.188h2.187v2.188h-2.187ZM119.392 19.215v-2.188h2.188v2.188h-2.188ZM121.58 19.215v-2.188h2.187v2.188h-2.187Z" fill="#B26411"/><path d="M123.767 19.215v-2.188h2.188v2.188h-2.188ZM125.955 19.215v-2.188h2.187v2.188h-2.187Z" fill="#FAD64A"/><path d="M128.142 19.215v-2.188h2.188v2.188h-2.188ZM123.767 17.027V14.84h2.188v2.187h-2.188ZM125.955 17.027V14.84h2.187v2.187h-2.187ZM104.08 36.715v-2.188h2.187v2.188h-2.187Z" fill="#B26411"/><path d="M106.267 36.715v-2.188h2.188v2.188h-2.188Z" fill="#E9B115"/><path d="M108.455 36.715v-2.188h2.187v2.188h-2.187Z" fill="#FAD64A"/><path d="M110.642 36.715v-2.188h2.188v2.188h-2.188Z" fill="#FDF55F"/><path d="M112.83 36.715v-2.188h2.187v2.188h-2.187Z" fill="#E9B115"/><path d="M115.017 36.715v-2.188h2.188v2.188h-2.188ZM117.205 36.715v-2.188h2.187v2.188h-2.187Z" fill="#DC9613"/><path d="M119.392 36.715v-2.188h2.188v2.188h-2.188ZM121.58 36.715v-2.188h2.187v2.188h-2.187Z" fill="#E9B115"/><path d="M123.767 36.715v-2.188h2.188v2.188h-2.188ZM125.955 36.715v-2.188h2.187v2.188h-2.187ZM128.142 36.715v-2.188h2.188v2.188h-2.188Z" fill="#752802"/><path d="M106.267 38.902v-2.187h2.188v2.187h-2.188Z" fill="#B26411"/><path d="M108.455 38.902v-2.187h2.187v2.187h-2.187Z" fill="#E9B115"/><path d="M110.642 38.902v-2.187h2.188v2.187h-2.188Z" fill="#FAD64A"/><path d="M112.83 38.902v-2.187h2.188v2.187h-2.188Z" fill="#E9B115"/><path d="M115.017 38.902v-2.187h2.188v2.187h-2.188Z" fill="#E9B115"/><path d="M117.205 38.902v-2.187h2.187v2.187h-2.187ZM119.392 38.902v-2.187h2.188v2.187h-2.188ZM121.58 38.902v-2.187h2.187v2.187h-2.187Z" fill="#752802"/><path d="M108.455 41.09v-2.188h2.187v2.188h-2.187ZM110.642 41.09v-2.188h2.188v2.188h-2.188Z" fill="#B26411"/><path d="M112.83 41.09v-2.188h2.187v2.188h-2.187ZM115.017 41.09v-2.188h2.188v2.188h-2.188Z" fill="#752802"/></svg>
